<?xml version="1.0" encoding="utf-8"?>
<!-- Generator: Adobe Illustrator 26.0.3, SVG Export Plug-In . SVG Version: 6.00 Build 0)  -->
<svg version="1.0" id="Layer_1" xmlns="http://www.w3.org/2000/svg" xmlns:xlink="http://www.w3.org/1999/xlink" x="0px" y="0px"
	 viewBox="0 0 344 260" style="enable-background:new 0 0 344 260;" xml:space="preserve">
<style type="text/css">
	.st0{fill:#656668;}
	.st1{fill:#FFFFFF;}
	.st2{fill:#003777;}
</style>
<path class="st0" d="M199.8,161.3c0-0.2,0-0.4,0-0.6h6.2v2.6h7v3.9c-1.3,0-2.6,0-4,0c1.4,1.1,2.4,2.6,2.8,4.3
	c0.5,2.3-0.2,4.6-1.9,6.3c-2.8,2.7-7,3.5-10.6,2.1c-2.2-0.8-3.9-2.5-4.8-4.6c-0.7-1.8-0.5-3.9,0.5-5.6c0.5-0.9,1.2-1.7,2-2.4
	c-1.2,0-2.4,0-3.6,0v-3.9h7.6C201,162.5,200.5,161.8,199.8,161.3 M202.2,168.2c-0.9,0.3-1.6,0.8-2.1,1.5c-1.5,2.2-1.1,5.1,1,6.8
	c1.3,1,3.1,0.9,4.3-0.1c2.1-1.8,2.3-4.9,0.5-7C205,168.4,203.6,167.9,202.2,168.2 M108.1,162.4h6.2v22.5h-5v-8.1h-6.5
	c-1.3,1.6-3,2.8-5,3.4c-2.9,0.8-5.9,0.3-8.4-1.4c-2-1.3-3.3-3.4-3.7-5.7c-0.3-2.1,0.2-4.3,1.5-6.1c1.7-2.3,4.3-3.7,7.2-3.8
	c3-0.2,5.9,1,7.9,3.2h6.8c0-1.2,0.1-2.7-1.1-3.3C108.1,162.8,108.1,162.5,108.1,162.4 M93.9,166.9c-1.5,0.6-2.6,1.9-3,3.4
	c-0.7,2.3,0.2,4.8,2.2,6.1c1.4,0.8,3.2,0.7,4.4-0.4c2.3-2.1,2.5-5.7,0.4-8.1c0,0-0.1-0.1-0.1-0.1C96.8,166.8,95.3,166.4,93.9,166.9
	 M104.3,170.2c0.1,0.9,0.2,1.8,0.1,2.7h4.8v-2.7L104.3,170.2 M137.9,162.4h5.8c0,10.4,0,20.8,0,31.2H139c0-6.2,0-12.5,0-18.8
	c-1.6,0-3.3,0-5,0v-3.9h5c0-2,0-4,0-6c0-0.8-0.4-1.6-1.1-2L137.9,162.4 M145.8,162.4h5v31.2c-1.7,0-3.3,0-5,0
	C145.8,183.2,145.8,172.7,145.8,162.4 M174.1,162.3h5.8c0,2.9,0,5.7,0,8.6h2.2c0-2.9,0-5.7,0-8.6h5v31.2h-5c0-6.2,0-12.5,0-18.8
	h-2.2c0,6.2,0,12.5,0,18.8h-4.7v-6.2h-17v-21.5c0.1-0.8-0.4-1.7-1.1-2.1c0-0.2,0-0.4,0-0.6h14.1v3.9h-8v16.4h11.9v-18.3
	c0.1-0.9-0.4-1.7-1.1-2.2L174.1,162.3 M215.7,162.4c2.1,0,4.1,0,6.2,0c0,2.9,0,5.7,0,8.6h4.9v3.9H222v5.5h-5c0-5,0-10.1,0-15.1
	c0.1-0.7-0.2-1.4-0.7-1.9c-0.3-0.2-0.5-0.6-0.5-0.9 M125.3,163.2c2.4,0,4.9,0,7.3,0c0,4.3-1.1,8.6-3.1,12.4c2.7,2,5.2,4.2,7.4,6.7
	c-0.9,1.3-1.8,2.6-2.8,3.9c-1.8-2.8-4.1-5.3-6.6-7.5c-1.7,2.5-3.9,4.7-6.3,6.5c-0.8-0.7-1.6-1.5-2.4-2.2c4.5-4,7.4-9.5,8.1-15.4
	c0.2-1.4-0.1-3.1-1.5-3.7L125.3,163.2 M230.8,163.2h24.6v24.9h3v3.9h-29.3v-3.9h5.3c0-2.5,0-5,0-7.6c0-0.6,0-1.2-0.2-1.8
	c-0.2-0.6-1-0.9-1-1.6c1.9,0,3.8,0,5.7,0v10.9h2.7c0-3.7,0-7.3,0-11c1.6,0.1,3.2,0,4.8,0c0,3.6,0,7.3,0,10.9h4c0-7,0-14,0-21h-19.6
	v-3.9 M196,182.9h26v10.6h-5v-6.7h-21V182.9 M89.5,183.2c2.1,0,4.2,0,6.2,0v6.2h18.9c0,1.3,0,2.6,0,3.9H90.7v-7.3
	c0.1-0.7-0.2-1.4-0.7-1.9C89.8,183.9,89.6,183.6,89.5,183.2 M103.8,201.7c2.3-0.4,5.1,0.1,6.6,2.1c2,2.9,1.2,6.9-1.7,8.9
	c0,0-0.1,0.1-0.1,0.1c-2.8,1.6-6.9,1.1-8.7-1.7c-1.4-2.2-1.3-5,0.2-7.1C101,202.7,102.3,201.9,103.8,201.7 M103.6,202.8
	c-1.1,0.4-1.9,1.4-2.1,2.6c-0.5,2.4,0,5.5,2.4,6.8c1.2,0.7,2.7,0.6,3.8-0.2c0.9-0.9,1.4-2.1,1.4-3.3c0.2-1.7-0.3-3.5-1.4-4.8
	C106.5,202.6,105,202.3,103.6,202.8 M129.2,201.7c1.3-0.3,2.6-0.3,3.8,0.2c0,0.9,0,1.7,0,2.6h-0.6c0-0.6-0.3-1.2-0.8-1.6
	c-0.9-0.6-2.5-0.5-2.8,0.7c-0.3,1.1,0.8,1.8,1.5,2.4c1.3,1,2.8,2.2,2.9,4c0.1,1.5-0.7,2.9-2.2,3.4c-1.5,0.5-3,0.4-4.4-0.3
	c0-1,0-2,0-3c0.8-0.1,0.7,0.8,0.9,1.3c0.2,1,1.2,1.7,2.3,1.5c1-0.2,1.7-1.2,1.5-2.3c-0.1-0.4-0.3-0.8-0.7-1.1c-1-1-2.2-1.6-3-2.8
	c-0.6-0.9-0.8-2-0.5-3C127.5,202.7,128.3,202.1,129.2,201.7 M223.6,202c1.4-0.5,2.9-0.5,4.3,0c0,0.9,0,1.8,0,2.6
	c-0.8,0.1-0.6-0.9-1-1.3c-0.6-0.8-1.9-1-2.7-0.4c-0.1,0.1-0.2,0.2-0.3,0.3c-0.4,0.7-0.2,1.5,0.4,2c1.1,1,2.4,1.7,3.2,3
	c1,1.4,0.8,3.4-0.5,4.6c-1.3,0.9-2.9,1.1-4.4,0.7c-1.4-0.2-3,0.3-4.1-0.7c-1.1-1.2-2.2-2.6-3.1-4h-1.3c0,1.3,0,2.5,0.1,3.8
	c0.4,0.5,1,0.3,1.6,0.4c0,0.1,0,0.4,0,0.5h-5.1V213c0.4-0.1,1.3,0,1.3-0.6c0-3.1,0-6.1,0-9.2c0-0.7-0.9-0.7-1.4-0.9
	c0.1-0.1,0.1-0.3,0.2-0.4c1.1-0.1,2.2,0,3.3,0c1.3-0.1,2.6,0,3.8,0.5c1,0.6,1.5,1.8,1.3,2.9c-0.3,1.1-0.9,2.1-1.9,2.8
	c1.4,1.6,2.6,3.7,4.5,4.8c0-0.9,0-1.8,0-2.7h0.6c0,0.8,0.3,1.5,0.9,2.1c1,0.9,3.1,0.5,3.2-1s-1.3-2.2-2.2-3c-1.2-0.8-2-2-2.2-3.4
	c-0.1-1.2,0.6-2.3,1.7-2.8 M214.2,202.9v5c0.8,0,1.9,0.2,2.4-0.7c0.7-1.1,0.6-2.6-0.2-3.7C215.8,203,215,202.7,214.2,202.9
	 M87.6,201.9h4.3v0.5l-0.6,0.2c0.8,1.6,1.8,3.1,2.6,4.7c0.9-1.5,1.7-3.1,2.4-4.8l-0.7-0.1c0-0.1,0-0.4,0-0.5h3.8c0,0.1,0,0.4,0,0.5
	c-0.7,0-1.4,0.4-1.9,1c-0.9,1.3-1.7,2.7-2.5,4.1c-0.7,1.1-0.4,2.5-0.4,3.7c0,0.5-0.1,1.2,0.3,1.6c0.4,0.1,0.9,0.2,1.3,0.2v0.5h-5.1
	c-0.1-0.9,1.2-0.4,1.3-1.1c0.1-0.8,0-1.8,0.1-2.8c0.1-1.7-1.2-2.9-1.9-4.3c-0.8-1.1-1.3-2.9-3-2.9C87.6,202.2,87.6,202,87.6,201.9
	 M113.8,201.8h0.7c2.7,2.7,5.3,5.5,8,8.3c0-2.1,0-4.2,0-6.2c0-0.4,0-0.9-0.4-1.2c-0.4-0.2-0.8-0.3-1.2-0.3c0-0.1,0-0.4,0-0.5h4
	c0,0.1,0,0.4,0,0.5c-0.5,0.1-1.2,0.2-1.2,0.9c-0.1,3.4,0,6.9,0,10.4c-0.4-0.1-0.8,0-1.1-0.3c-2.5-2.6-5.1-5.2-7.7-7.9
	c0.1,2.3,0,4.5,0.1,6.8c0.1,0.8,1,0.8,1.7,0.9v0.5h-4.4c0-0.8,1.1-0.4,1.3-1.1c0.1-0.4,0.1-0.8,0.1-1.2
	C113.8,208.1,113.8,205,113.8,201.8 M135.5,201.9h7.5c0,0.8,0,1.6,0,2.4c-0.2,0-0.3-0.1-0.5-0.1c-0.1-0.4-0.1-1.1-0.7-1.2
	c-0.9,0-1.7,0-2.6,0v3.8c0.8,0,1.7,0,2.5,0c0.5,0,0.4-0.7,0.5-1h0.5c0,1.1,0,2.1,0,3.2h-0.5c-0.1-0.3,0-1-0.5-1c-0.9,0-1.7,0-2.6,0
	c0,1.5,0,3.1,0,4.6c0.9,0,1.9,0,2.8-0.1c0.7-0.1,0.7-0.9,0.8-1.4h0.6v2.6h-7.7c0-0.1,0-0.4,0-0.5c0.5-0.1,1.3-0.1,1.3-0.9
	c0-3,0-6,0-9c-0.1-0.7-0.9-0.7-1.5-0.8V202 M146,202h4.8c0,0.1,0,0.4,0,0.5c-0.4,0-0.7,0.1-1.1,0.2c-0.3,0.3-0.2,0.7-0.2,1.1
	c0,2.9,0,5.7,0,8.5c-0.1,0.9,1.1,0.8,1.6,0.8v0.5H146c0-0.1,0-0.4,0-0.5c0.4-0.1,1.3,0,1.3-0.6c0-3.1,0-6.1,0-9.2
	c0.1-0.7-0.8-0.8-1.3-0.8C146,202.4,146,202.2,146,202 M156.7,202h4.8c0,0.1,0,0.4,0,0.5c-0.4,0.1-1.2,0-1.3,0.6
	c-0.1,1.5,0,2.9,0,4.4c-0.1,1.4,0.1,2.8,0.6,4.1c0.9,1.3,2.6,1.6,3.9,0.7c0.3-0.2,0.6-0.5,0.8-0.9c0.4-1.2,0.5-2.4,0.4-3.7
	c0-1.5,0.1-3,0-4.5c-0.1-0.6-0.9-0.5-1.3-0.7c0-0.1,0-0.4,0-0.5h4.2c0.1,0.9-1.3,0.3-1.3,1.1c-0.2,2.4,0.2,4.9-0.2,7.3
	c-0.3,1.7-1.7,3-3.4,3.3c-1.5,0.3-3.1,0-4.4-0.9c-1-1-1.6-2.4-1.5-3.9c-0.1-2,0-4,0-6c0.1-0.7-0.8-0.7-1.3-0.9c0-0.1,0-0.4,0-0.5
	 M170.8,201.6c0.4,0.1,0.8,0,1,0.3c2.6,2.6,5.1,5.3,7.7,8c0-2.1,0-4.2,0-6.2c0-0.4,0-1-0.4-1.2c-0.4-0.2-0.7-0.2-1.1-0.3v-0.5h4
	c0,0.1,0,0.4,0,0.5c-0.5,0.1-1.2,0.2-1.2,0.9c-0.1,3.4,0,6.9,0,10.3H180c-2.6-2.7-5.3-5.4-8-8.1v6.1c0,0.5,0,1.1,0.5,1.3
	c0.4,0.1,0.8,0.2,1.3,0.2c0,0.1,0,0.4,0,0.5h-4.4c-0.1-0.9,1.2-0.4,1.3-1.1c0.1-0.4,0.1-0.8,0.1-1.2
	C170.8,207.9,170.8,204.8,170.8,201.6 M183.6,201.7h4.8v0.5c-0.4,0.1-1.2,0-1.2,0.6c-0.1,3.1,0,6.1,0,9.2c-0.1,0.9,1,0.8,1.6,0.8
	v0.5h-5.2c-0.1-0.9,1.3-0.2,1.3-1.1c0-3.1,0-6.1,0-9.2c0-0.7-0.8-0.7-1.3-0.8C183.6,202.1,183.6,201.8,183.6,201.7 M188.8,201.7
	c1.4,0,2.9,0,4.3,0c0,0.1,0.1,0.3,0.2,0.4c-0.3,0.1-0.6,0.2-0.9,0.2c0.1,0.6,0.3,1.3,0.6,1.9l2.2,5.9c0.6-1.6,1.2-3.1,1.9-4.7
	c0.5-1,0.8-2,1.1-3.1l-0.9-0.1c0-0.1,0-0.4,0-0.5h11v2.4h-0.5c-0.1-0.4,0-1.1-0.6-1.3c-0.9-0.1-1.8-0.1-2.7-0.1v3.8
	c0.9,0,1.7,0,2.6-0.1c0.5-0.1,0.3-0.7,0.4-1h0.5v3.1h-0.5c-0.1-0.3-0.1-0.7-0.3-1c-0.9-0.1-1.8-0.1-2.8-0.1v4.6c1,0,1.9,0,2.9-0.1
	c0.6-0.2,0.6-0.9,0.8-1.4h0.5v2.6h-7.6c0-0.1,0-0.4,0-0.5c0.5-0.1,1.2,0,1.2-0.7c0.1-2.9,0-5.8,0-8.6c0.2-1.6-2.4-1.6-2.8-0.3
	c-1.5,3.4-3.1,6.9-4.6,10.3h-0.6c-1.4-3.5-2.8-6.9-4.3-10.3c-0.3-0.6-0.8-0.9-1.4-0.9v-0.5 M229.3,201.6h4.8v0.5
	c-0.4,0.1-1.2,0-1.2,0.6c-0.1,2.6,0,5.2,0,7.8c0,0.6,0,1.2,0.1,1.8c0.4,0.5,1.1,0.3,1.6,0.4c0,0.1,0,0.4,0,0.5h-5.1
	c0-0.1,0-0.4,0-0.5c0.4,0,0.7-0.1,1.1-0.2c0.4-0.2,0.2-0.8,0.3-1.1c0-2.9,0-5.7,0-8.5c0-0.7-0.8-0.7-1.3-0.8
	C229.4,202,229.4,201.8,229.3,201.6 M235.3,201.6h9.8c0.1,0.8,0.2,1.6,0.4,2.4H245c-0.2-0.5-0.2-1.2-0.8-1.3
	c-0.9-0.1-1.8-0.1-2.7-0.1c0,3.1,0,6.2,0,9.2c0,0.9,1.1,0.7,1.6,0.8v0.5h-5.1v-0.5c0.4-0.1,1.3,0,1.3-0.6c0.1-3.1,0-6.3,0-9.4
	c-1-0.1-1.9,0-2.9,0.1c-0.5,0.2-0.5,0.8-0.7,1.2h-0.6l0.4-2.4 M246.3,201.7h4.4c0,0.4-0.3,0.6-0.6,0.7c0.8,1.6,1.8,3.1,2.6,4.7
	c1-1.5,1.8-3.1,2.4-4.8l-0.7-0.1c0-0.1,0-0.4,0-0.5h3.8v0.5c-1,0.1-1.9,0.7-2.3,1.6c-0.8,1.2-1.6,2.5-2.2,3.8
	c-0.3,0.8-0.4,1.7-0.3,2.5c0,0.7,0,1.4,0.1,2.1c0.2,0.6,1,0.4,1.6,0.6v0.5h-5.1c0-0.1,0-0.4,0-0.5c0.5-0.1,1.3-0.1,1.2-0.8
	c-0.1-1.6,0.4-3.3-0.6-4.7s-1.7-3-2.8-4.4c-0.4-0.5-1-0.8-1.6-0.8L246.3,201.7L246.3,201.7z"/>
<path class="st1" d="M166.4,47.9c-28,3.1-48.1,28.4-45,56.4c3.1,28,28.4,48.1,56.4,45c28-3.1,48.1-28.4,45-56.4
	c-2-17.7-13-33-29.2-40.5C185.1,48.4,175.7,46.8,166.4,47.9"/>
<path class="st1" d="M170.9,50.8h0.5l4.8,5.6c0-1.5,0.3-3,0.2-4.5c-0.3-0.3-0.7-0.5-1-0.7c1-0.1,1.9,0,2.9,0.3
	c-0.4,0.1-1.1,0.1-1,0.7c-0.2,2.2-0.2,4.3-0.4,6.5c-0.3-0.1-0.6-0.2-0.8-0.5l-4.4-5.1c-0.1,1.4-0.2,2.9-0.2,4.3
	c0,0.6,0.8,0.5,1.2,0.7c-0.3,0.4-0.8,0.2-1.2,0.2l-1.7-0.1l0.1-0.3c0.3-0.1,0.8-0.1,0.8-0.5C170.7,55.1,170.8,52.9,170.9,50.8"/>
<path class="st1" d="M163.9,51.8c0.8-0.6,1.8-0.5,2.7-0.8c0,0.1,0,0.3,0,0.4l-0.7,0.1c0.1,1.8,0.9,3.5,0.8,5.3
	c-0.3,2.5-4.5,3.3-5.6,1c-0.6-1.5-0.7-3.2-1.2-4.8c-0.2-0.2-0.6-0.1-0.8-0.2v-0.3c1-0.2,1.9-0.4,2.9-0.5l0.3,0.2
	c-0.2,0.2-0.7,0.2-0.8,0.5c0.1,1.1,0.4,2.2,0.6,3.3c0.1,0.8,0.4,1.6,0.9,2.1c0.8,0.6,1.9,0.5,2.5-0.3c0.2-0.2,0.3-0.4,0.3-0.7
	c0-1.1-0.2-2.3-0.5-3.4c-0.1-0.6-0.3-1.2-0.5-1.8L163.9,51.8"/>
<path class="st1" d="M181.5,51.8c0.8,0.1,1.6,0.3,2.4,0.5c0.3,0.1,0.7,0.1,0.8,0.5h-1c-0.5,1.8-0.8,3.6-1.3,5.4
	c-0.1,0.3-0.1,0.6-0.1,0.9c0.3,0.2,0.6,0.3,0.9,0.4v0.3c-0.9-0.2-1.8-0.4-2.8-0.6c-0.2,0-0.4-0.2-0.5-0.4h1c0.5-1.9,0.9-3.8,1.3-5.8
	C182.5,52.5,181.7,52.3,181.5,51.8"/>
<path class="st1" d="M187.1,53.2c1,0.3,2,0.7,2.9,1.2c-0.2,0.1-0.5,0.2-0.8,0.2c-0.2,1.7-0.2,3.5-0.3,5.2c1.2-1.2,2.5-2.4,3.6-3.7
	l-0.5-0.7c0.9,0.2,1.8,0.6,2.5,1.2c-0.4,0-1-0.1-1.4,0.2c-1.9,1.6-3.6,3.4-5.5,5c-0.2-2.5,0-5,0-7.4
	C187.8,53.9,187.4,53.6,187.1,53.2"/>
<path class="st1" d="M148.4,57.2c1-0.6,2-1.1,3-1.6c0,0.4-0.3,0.6-0.6,0.9c0.8,1.6,1.7,3.2,2.5,4.9c0.1,0.3,0.3,0.6,0.5,0.8
	c0.4-0.1,0.8-0.2,1.2-0.2c-0.9,0.7-1.9,1.3-3,1.7l-0.2-0.3l0.7-0.5c-0.9-1.8-1.8-3.6-2.7-5.4C149.6,56.9,148.9,57.3,148.4,57.2"/>
<path class="st1" d="M196.2,57.7c0.4,0.1,0.8,0.3,1.1,0.5c1,0.7,2.1,1.4,3.1,2.1l-0.8,1.3l-0.3-0.1c0.1-0.3,0.2-0.6,0.2-0.9
	c-0.4-0.4-0.9-0.8-1.5-1.1l-1.4,2c0.5,0.3,1,0.7,1.5,1c0.3-0.2,0.5-0.3,0.8-0.5c-0.3,0.7-0.7,1.4-1.1,2l-0.3-0.2
	c0.1-0.2,0.2-0.5,0.2-0.7l-1.5-1c-0.6,0.8-1.1,1.6-1.6,2.4c0.5,0.4,1.1,0.7,1.6,1c0.4-0.1,0.7-0.4,1.2-0.5c-0.3,0.5-0.6,1-1,1.5
	c-1.3-0.9-2.7-1.8-4-2.7c0-0.1,0-0.3,0-0.4l0.8,0.4c1.2-1.6,2.2-3.2,3.3-4.9C197,58.6,196.4,58.1,196.2,57.7"/>
<path class="st1" d="M142.1,61.3c1.1-0.8,2.2-1.6,3.2-2.4c0.3,0.4,0.7,0.9,1,1.3c-0.3,0-0.7-0.1-0.9-0.4c-0.6,0.3-1.1,0.6-1.6,1
	l1.5,2c0.5-0.3,0.9-0.7,1.4-1.1c-0.1-0.3-0.2-0.6-0.3-0.8c0.7,0.4,1.2,1.1,1.4,1.8c-0.3-0.1-0.5-0.2-0.8-0.4l-1.4,1l1.8,2.4
	c0.6-0.4,1.1-0.8,1.5-1.3c-0.1-0.4-0.1-0.8-0.1-1.2c0.4,0.5,0.7,0.9,1.1,1.4c-1.1,0.8-2.2,1.6-3.2,2.4c-0.3,0.2-0.6,0.5-1,0.4
	l0.6-0.7c-1.1-1.6-2.3-3.2-3.5-4.7c-0.3-0.6-1-0.1-1.4,0C141.6,61.7,141.9,61.5,142.1,61.3"/>
<path class="st1" d="M165.5,46.8c28.6-3.5,54.7,16.8,58.2,45.4s-16.8,54.7-45.4,58.2c-28.6,3.5-54.7-16.8-58.2-45.4
	c-1.9-15.3,3.1-30.7,13.6-42C142.1,54,153.3,48.3,165.5,46.8"/>
<path class="st1" d="M162.3,72.7c-5.5,2-11.3,3-17.1,3v18.5c0,2.6,0.2,5.3,0.6,7.9c17.4-3.2,35.2-3.2,52.6,0c0.3-2.3,0.5-4.7,0.6-7
	c0-6.5,0-12.9,0-19.4c-1.8,0-3.6-0.1-5.3-0.3c-7.6-0.9-15.3-3.2-21.5-7.9C169.1,69.6,165.8,71.4,162.3,72.7"/>
<path class="st1" d="M146.1,103.6c1.3,6.4,4.3,12.4,8.5,17.4c5.9-5.8,11.7-11.7,17.5-17.5c5.8,5.8,11.7,11.7,17.5,17.5
	c4.2-5,7.2-11,8.5-17.4C180.9,100.4,163.3,100.4,146.1,103.6"/>
<path class="st1" d="M158.9,125.3c4,3.4,8.4,6.2,13.2,8.3c4.8-2.1,9.2-4.9,13.2-8.3c-4.4-4.4-8.8-8.8-13.2-13.2
	C167.7,116.5,163.3,120.9,158.9,125.3"/>
<path class="st1" d="M203.4,62.6c0.9,0.8,1.8,1.7,2.6,2.6c0.7,0.7,0.7,1.7,0.1,2.5c-0.7,0.6-1.6,0.9-2.5,0.8
	c-0.1,1.1-0.3,2.1-0.3,3.2c0,0.6,0.4,1.1,0.4,1.6c-0.6-0.6-1.5-1.2-1.5-2.1c0.1-1.1,0.2-2.1,0.4-3.2l-0.6-0.6l-1.7,1.7
	c0.1,0.3,0.9,1,0.3,1.1c-0.9-0.7-1.7-1.6-2.3-2.5l0.9,0.5c0.8-0.7,1.5-1.4,2.2-2.1c0.8-0.8,1.6-1.5,2.3-2.4
	C203.6,63.2,203.4,62.9,203.4,62.6"/>
<path class="st1" d="M202.5,66.9c0.4,0.4,0.8,1,1.4,0.8c0.8-0.2,1.3-0.9,1.5-1.6c0.1-0.6-0.3-1-0.6-1.4
	C204,65.4,203.2,66.2,202.5,66.9"/>
<path class="st1" d="M137,67.2c-0.1-1.3,0.9-2.3,1.9-2.9c0.4,0.4,0.9,0.8,1.3,1.3c-0.6,0.3-1.1-0.4-1.7-0.1
	c-0.8,0.3-1.1,1.4-0.3,1.8c1.1,0.3,2.1-0.2,3.2-0.1c1.2,0,2.1,1.1,2.1,2.3c0,0,0,0,0,0c-0.2,1.2-1,2.2-2.2,2.7
	c-0.6-0.4-1.1-1-1.5-1.6c0.4,0.1,0.7,0.3,1.1,0.4c1,0.5,2.3-1,1.5-1.8c-0.8-0.8-2-0.3-2.9-0.3C138.4,69.2,137.3,68.4,137,67.2"/>
<path class="st1" d="M133.5,70.3c0.5-0.2,0.1,0.5,0.1,0.7c0.6,0.6,1.3,1,2,1.4c1.3,0.8,2.6,1.6,3.9,2.4c-0.5,0.4-1.1,0.7-1.7,0.7
	l-5.7,1.3l3.1,1.9c0.3,0.2,0.6,0.3,0.9,0.4c0.3-0.2,0.6-0.6,1-0.7c-0.5,0.9-1,1.8-1.6,2.6c-0.1-0.4,0.3-1.1-0.2-1.4
	c-1.8-1.2-3.7-2.3-5.5-3.4c0.2-0.2,0.6-0.4,0.9-0.5c2.2-0.5,4.4-1,6.6-1.5c-1.2-0.7-2.4-1.5-3.6-2.2c-0.5-0.3-0.9,0.3-1.4,0.5
	C132.5,71.7,133,70.9,133.5,70.3"/>
<path class="st1" d="M207.7,73c0-1.2,0.8-2.2,2-2.3c1.4,0,2.3,1.3,2.6,2.5c-0.5,0.2-1,1-1.6,0.8c0.3-0.4,0.8-0.9,0.6-1.4
	c-0.2-0.6-1-1.3-1.6-0.7c-0.6,0.6-0.4,1.8-0.5,2.6c0,1.2-1,2.2-2.2,2.3c-1.5-0.2-2.6-1.4-2.7-2.8c0.6-0.4,1.1-0.7,1.6-1.1
	c0.2,0.4-0.2,0.7-0.4,1c-0.7,0.8,0.4,2.4,1.4,1.9C207.9,75.1,207.6,73.9,207.7,73"/>
<path class="st1" d="M170.2,75.6c5.8-1,11.3,2.9,12.3,8.7c1,5.8-2.9,11.3-8.7,12.3s-11.3-2.9-12.3-8.7c-0.3-1.5-0.2-3,0.2-4.4
	C162.8,79.5,166.1,76.4,170.2,75.6"/>
<path class="st1" d="M170.9,80.8c-2.9,0.7-4.8,3.6-4.1,6.5s3.6,4.8,6.5,4.1c2.9-0.7,4.7-3.5,4.1-6.4
	C176.8,82.1,173.9,80.2,170.9,80.8C170.9,80.8,170.9,80.8,170.9,80.8"/>
<path class="st1" d="M214,76.3c0.2,0.1,0.4,0.3,0.5,0.5c0.3,0.7,0.7,1.4,1,2.1c0,0.1-0.1,0.2-0.1,0.3c-0.2-0.3-0.4-0.5-0.7-0.7
	c-1.2,0.5-2.4,1.2-3.7,1.8c-0.7,0.3-1.4,0.7-2,1.1c-0.1,0.3,0.5,1.2,0,1c-0.5-0.9-0.9-1.8-1.3-2.7c0-0.1,0-0.3,0-0.4
	c0.2,0.2,0.4,0.5,0.6,0.7c0.5-0.1,1.1-0.4,1.5-0.7c1.3-0.7,2.7-1.3,4-2C214.3,77.1,214,76.6,214,76.3"/>
<path class="st1" d="M189.1,83.3c0.3-1.1,1.3-1.8,2.1-2.5c-0.1,0.6-0.4,1.2-0.2,1.8c0.6,1.1,1.9,1.6,2.5,2.6
	c0.1,1.1-0.9,1.9-1.6,2.7h1.2c-0.1,0.4-0.3,0.9-0.4,1.3c-1.4,0-2.9,0-4.3,0c-0.1-0.4-0.3-0.9-0.4-1.3c0.5,0,1,0,1.5,0
	c-0.1-1.2-1.6-1.5-2.1-2.6c0-0.9,0.7-1.5,1.2-2.1c0,0.5,0.1,1,0.4,1.4c0.5,0.6,1.5,0.9,1.8,1.7c0.1,0.7-0.4,1.2-0.7,1.7
	c0.9,0.1,1.4-0.9,1.4-1.7C191.1,85,189.2,84.8,189.1,83.3"/>
<path class="st1" d="M128.8,81.4c2.2-0.6,4.4,0.6,5,2.8c0,0.1,0,0.1,0.1,0.2c0.4,1.9-0.6,3.7-2.3,4.6c-2.1,0.8-4.4-0.2-5.2-2.2
	c0-0.1-0.1-0.2-0.1-0.3C125.9,84.4,126.9,82.3,128.8,81.4"/>
<path class="st1" d="M128.6,82.9c-1.1,0.4-1.8,1.5-1.7,2.7c0.2,0.7,0.7,1.3,1.4,1.6c1,0.6,2.2,0.7,3.4,0.3c1-0.4,1.7-1.4,1.7-2.5
	c-0.1-0.8-0.6-1.4-1.4-1.8C131,82.8,129.8,82.6,128.6,82.9"/>
<path class="st1" d="M215.3,82.4c0.5-0.1,1.1-0.2,1.6-0.3c0.6,2,1.2,4,1.8,6c-0.5,0.2-1,0.5-1.5,0.7c0.1-0.4,0.4-0.6,0.6-1
	c-0.1-0.6-0.2-1.3-0.4-1.8c-1.9,0.6-3.8,1.1-5.6,1.7c-0.6,0.1-0.2,0.8-0.3,1.2l-0.3,0.1c-0.3-1.1-0.6-2.1-0.9-3.2l0.3-0.1l0.4,0.7
	l6-1.8c-0.1-0.6-0.3-1.2-0.6-1.7C216.1,82.7,215.6,82.8,215.3,82.4"/>
<path class="st1" d="M150.3,84.9c0.9,0.2,2-0.3,2.7,0.3c0.1,1.7,0.1,3.5,0,5.2c-0.9,0-1.8,0-2.7,0C150.2,88.6,150.2,86.8,150.3,84.9
	"/>
<path class="st1" d="M154.1,85c0.8-0.1,1.6-0.1,2.4,0c0,1.8,0,3.6,0,5.4c-0.9,0.1-1.8,0-2.8,0c-0.1-1.5,0-2.9,0-4.4
	C153.7,85.7,153.7,85.1,154.1,85"/>
<path class="st1" d="M148.9,85.8h0.7c0,1.7,0,3.4,0,5.1h3.1c0.2,0.2,0.3,0.6,0.7,0.7s0.5-0.4,0.7-0.7c1,0,2,0,3.1,0
	c0-1.7,0-3.5,0-5.2l0.7,0.2c0,1.9,0.1,3.8,0,5.7c-1.1,0-2.1,0-3.2,0c-0.5,0.7-1.4,0.8-2.1,0.4c-0.1-0.1-0.3-0.2-0.4-0.4
	c-1.1,0-2.2,0-3.3,0C148.9,89.7,148.9,87.7,148.9,85.8"/>
<path class="st1" d="M189.3,89.9c0.8-0.1,1.7-0.1,2.5,0c-0.3,1.6-0.5,3.2-0.8,4.7c-0.4,0-1,0.2-1-0.3
	C189.7,92.9,189.6,91.3,189.3,89.9"/>
<path class="st1" d="M124.8,92.8c-0.1-0.9,0.1-1.9,0.4-2.8c0.2,0.5,0.2,1,0.6,1.3c0.7,0.6,1.5,1.2,2.3,1.8c0.8,0.6,2,0.6,3,0.7
	c0.7,0.1,0.6-0.8,1-1.1c0,1.2-0.1,2.4-0.4,3.5c-0.2-0.3-0.1-1-0.6-1c-1-0.1-2.1-0.4-3.1,0.1s-1.8,0.9-2.7,1.4
	c-0.4,0.2-0.6,0.8-1,1.1c0-1,0.2-2,0.3-3l0.5,0.5c1-0.4,2-0.9,3-1.4c-0.9-0.6-1.8-1.3-2.7-1.8L124.8,92.8"/>
<path class="st1" d="M218.9,90.1c0.3,1,0.5,2,0.4,3l-0.5-0.4c-0.9,0.6-1.8,1.3-2.7,1.9c0.9,0.5,1.9,0.9,2.9,1.2l0.6-0.5
	c0.1,0.9,0.2,1.8,0.2,2.7c-0.4-0.4-0.6-1.1-1.2-1.3c-1-0.5-2-1-3-1.4c-0.9-0.1-1.7,0-2.6,0.2c-0.6,0-0.4,0.8-0.5,1.2
	c-0.4-0.4-0.3-1.1-0.4-1.6s-0.3-1.3,0-1.9c0.2,0.3,0.2,1,0.7,0.9c1.1-0.1,2.3,0,3.2-0.8C217.1,92.2,218.7,91.7,218.9,90.1"/>
<path class="st1" d="M129.8,109.4c0.7-0.4,1.6-0.2,2,0.4c0.4,0.7,0.2,1.6-0.4,2c-0.4,0.3-0.9,0.3-1.4,0.1c-0.7-0.3-1.1-1.2-0.7-1.9
	C129.4,109.7,129.6,109.5,129.8,109.4"/>
<path class="st1" d="M213.6,109.4c0.8-0.2,1.6,0.2,1.8,1s-0.2,1.6-1,1.8c-0.5,0.2-1.1,0-1.5-0.3c-0.6-0.6-0.6-1.5,0-2.1
	C213.2,109.6,213.4,109.5,213.6,109.4"/>
<path class="st1" d="M200.9,126.9l4.2-5c1.7,1.4,3.4,2.8,5.1,4.2l0.6-0.6l0.8,0.7l-5,6l-0.8-0.7l0.9-1.2l-1.9-1.5h-0.6
	c0.3-0.4,0.7-0.8,1-1.2l2.2,1.8l0.4-0.5l-2.2-2l0.8-1l2.2,1.8c0.2-0.2,0.4-0.5,0.6-0.8l-4.3-3.5c-1.1,1.3-2.2,2.7-3.3,4L200.9,126.9
	"/>
<path class="st1" d="M136.9,122.7c1.1-0.8,2.6-0.6,3.4,0.5c0,0.1,0.1,0.1,0.1,0.2c0.3,0.6,0.5,1.2,0.6,1.8c0.4,0.5,0.7,0.9,1.1,1.3
	c0.2-0.3,0.4-0.6,0.5-1c0.4,0.4,0.7,0.8,1.1,1.3l-4.5,3.9l-0.9-1c0.5-0.5,1.1-1,1.6-1.4c-0.3-0.4-0.7-0.8-1.1-1.2
	c-0.8,0-1.6-0.3-2.1-0.9C135.9,125.1,135.9,123.6,136.9,122.7"/>
<path class="st1" d="M138.2,123.4c-0.7,0.2-1.1,0.9-1,1.6c0.1,0.2,0.2,0.4,0.3,0.6c0.6,0.5,1.4,0.4,1.9-0.2c0.2-0.2,0.3-0.6,0.3-0.9
	c0-0.7-0.6-1.2-1.2-1.1C138.4,123.3,138.3,123.3,138.2,123.4"/>
<path class="st1" d="M140,126.6l0.8,0.9l0.5-0.4c-0.3-0.3-0.6-0.6-0.8-1L140,126.6"/>
<path class="st1" d="M167.1,122.3c0.1,1.3,0.2,2.6,0.1,3.8l0.7,0.3c-0.8,0.1-1.6,0.1-2.4,0c0.3-0.1,0.5-0.2,0.8-0.3
	c0-1,0.1-1.9,0.1-2.9l-0.9,0.2C165.9,123,166.5,122.5,167.1,122.3"/>
<path class="st1" d="M168.6,123.3c0.2-0.7,0.9-1.2,1.7-1c0.3,0.1,0.6,0.3,0.8,0.6c0.2,0.5-0.2,1-0.5,1.3c0.4,0.3,0.8,0.7,0.8,1.2
	c0,1.4-2.6,1.7-2.9,0.2c-0.1-0.6,0.4-1,0.8-1.3C168.9,124,168.6,123.7,168.6,123.3"/>
<path class="st1" d="M169.3,123.3c0.1,0.3,0.5,0.5,0.8,0.7c0.2-0.4,0.5-0.9,0.1-1.2S169.2,122.9,169.3,123.3"/>
<path class="st1" d="M169.7,124.4c-0.3,0.4-0.7,0.8-0.4,1.3c0.1,0.3,0.5,0.5,0.9,0.3c0.2-0.1,0.3-0.2,0.3-0.3
	C170.7,125.2,170.1,124.8,169.7,124.4"/>
<path class="st1" d="M172.3,123.3c0-1.2,2-1.4,2.5-0.5c0.1,0.5-0.1,1-0.5,1.3c0.4,0.3,0.8,0.7,0.8,1.2c-0.1,1.4-2.5,1.6-2.9,0.3
	c-0.2-0.6,0.3-1.1,0.7-1.4C172.6,124,172.2,123.7,172.3,123.3"/>
<path class="st1" d="M173,123.1c-0.1,0.5,0.4,0.6,0.7,0.9c0.1-0.3,0.4-0.7,0.2-1.1S173,122.6,173,123.1"/>
<path class="st1" d="M173.6,126.2c1-0.3,0.5-1.5-0.2-1.8C172.7,124.9,172.6,126.1,173.6,126.2"/>
<path class="st1" d="M176.1,122.4h2c0,0.4-0.1,0.7-0.1,1.1l-0.4-0.4h-1.2c0,0.6,0.8,0.6,1.2,0.9c0.6,0.4,0.8,1.3,0.4,1.9
	c-0.1,0.1-0.1,0.2-0.2,0.2c-0.6,0.4-1.3,0.6-2,0.4c0-0.4,0-0.8,0-1.2c0.2,0.3,0.4,0.9,0.9,0.9c0.7,0,1-0.9,0.6-1.4
	c-0.3-0.5-0.8-0.6-1.3-0.8C175.9,123.4,176,122.9,176.1,122.4"/>
<path class="st1" d="M135.3,125.4c0.3,0.4,0.7,0.8,1.1,1.3l-1.2,1.1l3.3,3.8l-0.8,0.7l-4.2-4.8C134.1,126.8,135,126.3,135.3,125.4"
	/>
<path class="st1" d="M191,133.8l1.5-0.8c0.3,0.7,0.7,1.4,1,2.1l1.2-0.6c0.1,0.3,0.3,0.6,0.4,0.9L194,136c0.2,0.4,0.4,0.9,0.6,1.4
	l-1.2,0.6c-0.6-1.1-1.1-2.3-1.6-3.4C191.6,134.2,191.4,134,191,133.8"/>
<path class="st1" d="M151.4,133.4l1.8,0.8c-0.5,1-1.2,1.9-2.1,2.6c0.4,0.8,0.7,1.6,1,2.4l-1.1,0.6c-0.2-0.9-0.4-1.7-0.8-2.5
	c-0.7,0.4-1.5,0.7-2.3,0.9c-0.1-0.3-0.2-0.5-0.3-0.8c1.6-0.5,2.9-1.5,3.7-2.9C151.7,134.1,151.5,133.7,151.4,133.4"/>
<path class="st1" d="M188.8,135.2l1.7-0.8l0.4,1l-0.8,0.4c0.9,0.3,1.5,1.2,1.4,2.1c-0.2,1.4-1.6,2.3-2.9,2.1
	c-0.3-0.1-0.6-0.2-0.9-0.3c-0.7-0.6-1-1.5-0.7-2.3l-0.7,0.4c-0.1-0.3-0.3-0.6-0.4-1c0.6-0.3,1.2-0.6,1.8-0.9
	c-0.2-0.2-0.4-0.3-0.7-0.5l1.5-0.7C188.6,134.7,188.7,134.9,188.8,135.2"/>
<path class="st1" d="M188.8,136.7c-0.6,0.3-0.9,1-0.6,1.6c0.1,0.2,0.3,0.4,0.5,0.5c0.5,0.3,1.2,0.2,1.6-0.4c0.1-0.1,0.1-0.2,0.1-0.4
	c0.1-0.7-0.3-1.3-1-1.4C189.2,136.6,189,136.6,188.8,136.7"/>
<path class="st1" d="M154.6,134.6c0.4,0.2,0.9,0.4,1.4,0.6l-3.5,7.5l-1.1-0.5c0.7-1.5,1.4-3,2.1-4.5l-1.3-0.6c0.1-0.3,0.3-0.6,0.4-1
	l1.2,0.6C154.4,136.1,154.6,135.3,154.6,134.6"/>
<path class="st1" d="M156.4,135.4l1.2,0.6c-1.2,2.5-2.3,5-3.5,7.5L153,143C154.1,140.5,155.3,138,156.4,135.4"/>
<path class="st1" d="M188.7,141l6.2-3c0.4,0.9,0.8,1.7,1.2,2.6l-1.2,0.6c-0.2-0.5-0.5-1.1-0.8-1.6c-1.6,0.8-3.3,1.6-5,2.4L188.7,141
	"/>
<path class="st1" d="M172.4,138.6h1.5v2.2h0.6v-2.2h1.3c0,2.8,0,5.5,0,8.3h-1.3v-5h-0.6v5c-0.4,0-0.8,0-1.2,0v-1.6h-4.5
	c0-1.8,0-3.6,0-5.3c0-0.4-0.1-0.8-0.3-1.1c1.2,0,2.5,0,3.8,0v1h-2.1v4.4c1,0,2.1,0,3.1,0c0-1.5,0-3,0-4.5
	C172.6,139.2,172.5,138.8,172.4,138.6"/>
<path class="st2" d="M166.4,47.9c28-3.2,53.3,17,56.5,45c3.2,28-17,53.3-45,56.5c-28,3.2-53.3-17-56.5-45
	c-1.6-14.3,2.9-28.7,12.4-39.5C142.1,55.3,153.8,49.3,166.4,47.9 M170.9,50.8c-0.2,2.2-0.2,4.4-0.4,6.5c0,0.4-0.5,0.4-0.8,0.5
	l-0.1,0.3l1.7,0.1c0.4,0,0.9,0.2,1.2-0.2c-0.3-0.2-1.2-0.1-1.1-0.7c0-1.4,0.1-2.9,0.2-4.3l4.4,5.1c0.2,0.2,0.5,0.4,0.8,0.5
	c0.2-2.2,0.2-4.3,0.4-6.5c0-0.6,0.6-0.6,1-0.7c-0.9-0.3-1.9-0.4-2.9-0.3c0.3,0.3,0.8,0.4,1,0.7c0,1.5-0.2,3-0.2,4.5l-4.8-5.6
	L170.9,50.8 M163.9,51.8l0.9,0.2c0.2,0.6,0.4,1.2,0.5,1.8c0.3,1.1,0.5,2.2,0.5,3.4c-0.2,1-1.2,1.6-2.2,1.3c-0.2-0.1-0.5-0.2-0.7-0.3
	c-0.5-0.6-0.8-1.4-0.9-2.2c-0.2-1.1-0.5-2.2-0.6-3.3c0.1-0.3,0.6-0.3,0.8-0.5l-0.3-0.2c-1,0.1-1.9,0.4-2.9,0.5v0.3
	c0.3,0.1,0.6,0,0.8,0.2c0.5,1.6,0.5,3.3,1.2,4.8c1.1,2.4,5.3,1.6,5.6-1c0.1-1.8-0.6-3.5-0.8-5.3l0.7-0.1c0-0.1,0-0.3,0-0.4
	C165.6,51.3,164.5,51.1,163.9,51.8 M181.5,51.8c0.2,0.4,1,0.6,0.7,1.1c-0.4,1.9-0.9,3.9-1.3,5.8h-1c0.1,0.2,0.3,0.3,0.5,0.4
	c0.9,0.2,1.9,0.4,2.8,0.6v-0.3c-0.3-0.1-0.6-0.2-0.9-0.4c0-0.3,0-0.6,0.1-0.9c0.4-1.8,0.8-3.6,1.3-5.4h1c-0.1-0.4-0.5-0.4-0.8-0.5
	C183.1,52.1,182.3,51.8,181.5,51.8 M187,53.1c0.2,0.4,0.6,0.7,0.7,1.2c0.1,2.5-0.2,5,0,7.4c1.9-1.6,3.6-3.4,5.5-5
	c0.4-0.4,0.9-0.2,1.3-0.2c-0.7-0.6-1.6-1-2.5-1.2l0.5,0.7c-1.2,1.2-2.4,2.5-3.6,3.7c0.1-1.7,0.1-3.5,0.3-5.2c0.3,0,0.5-0.1,0.8-0.2
	C189,53.8,188,53.4,187,53.1 M148.4,57.1c0.4,0.1,1.1-0.2,1.3,0.3c0.9,1.8,1.9,3.6,2.7,5.4l-0.7,0.5l0.2,0.3c1.1-0.5,2.1-1.1,3-1.7
	c-0.4,0.1-0.8,0.1-1.2,0.2c-0.2-0.2-0.4-0.5-0.5-0.8c-0.8-1.6-1.7-3.2-2.5-4.9c0.3-0.2,0.6-0.5,0.6-0.9
	C150.3,55.9,149.3,56.5,148.4,57.1 M196.1,57.6c0.2,0.4,0.9,0.9,0.5,1.4c-1.1,1.6-2.1,3.3-3.3,4.9l-0.8-0.4c0,0.1,0,0.3,0,0.4
	c1.3,0.9,2.7,1.8,4,2.7c0.4-0.5,0.7-1,1-1.5c-0.4,0.1-0.7,0.4-1.2,0.5c-0.6-0.3-1.1-0.6-1.6-1c0.5-0.8,1.1-1.6,1.6-2.4l1.5,1
	c-0.1,0.2-0.2,0.5-0.2,0.7l0.3,0.2c0.5-0.6,0.9-1.2,1.2-1.9c-0.3,0.2-0.5,0.3-0.8,0.5c-0.5-0.3-1-0.6-1.5-1l1.4-2
	c0.5,0.3,1,0.7,1.4,1.1c0.1,0.3-0.1,0.6-0.2,0.8l0.3,0.1l0.8-1.3c-1-0.7-2.1-1.4-3.1-2.1c-0.3-0.2-0.7-0.4-1.1-0.5 M142.2,61.2
	c-0.3,0.2-0.5,0.4-0.7,0.7c0.5-0.1,1.1-0.6,1.5,0c1.2,1.6,2.4,3.1,3.5,4.8l-0.6,0.7c0.4,0.1,0.7-0.2,1-0.4c1-0.8,2.1-1.6,3.2-2.4
	c-0.4-0.5-0.7-1-1.1-1.4c0,0.4,0,0.8,0.1,1.2c-0.4,0.5-1,0.9-1.5,1.3l-1.8-2.4l1.4-1c0.2,0.2,0.5,0.3,0.8,0.4
	c-0.2-0.8-0.7-1.4-1.4-1.8c0.1,0.3,0.2,0.6,0.3,0.8c-0.5,0.4-0.9,0.7-1.4,1.1l-1.5-2c0.5-0.4,1-0.8,1.6-1c0.2,0.3,0.5,0.4,0.9,0.4
	c-0.3-0.5-0.6-0.9-1-1.3C144.3,59.7,143.2,60.5,142.2,61.2 M167.5,61.7c-20.4,2.5-34.8,21.1-32.3,41.5s21.1,34.8,41.5,32.3
	c20.4-2.5,34.8-21.1,32.3-41.5c-1.4-11.1-7.7-21-17.2-26.9C184.5,62.5,176,60.6,167.5,61.7 M203.4,62.6c0,0.4,0.2,0.7,0.2,1.1
	c-0.7,0.8-1.5,1.6-2.3,2.4c-0.7,0.7-1.4,1.4-2.2,2.1l-0.9-0.5c0.6,1,1.4,1.8,2.3,2.5c0.6-0.1-0.3-0.8-0.3-1.1l1.7-1.7l0.6,0.6
	c-0.2,1-0.3,2.1-0.4,3.2c0,1,0.9,1.5,1.5,2.1c0-0.6-0.4-1.1-0.4-1.6c0-1.1,0.2-2.1,0.3-3.2c0.9,0.1,1.8-0.2,2.5-0.8
	c0.6-0.7,0.5-1.8-0.1-2.5C205.2,64.2,204.3,63.4,203.4,62.6 M137,67.2c0.3,1.2,1.4,1.9,2.6,1.7c1,0,2.1-0.5,2.9,0.3
	c0.8,0.8-0.5,2.3-1.5,1.8c-0.4-0.2-0.7-0.3-1.1-0.4c0.4,0.6,0.9,1.2,1.5,1.6c1.1-0.4,2-1.4,2.2-2.7c0.1-1.2-0.9-2.2-2.1-2.3
	c0,0,0,0,0,0c-1.1-0.1-2.1,0.4-3.2,0.1c-0.8-0.4-0.5-1.6,0.3-1.8c0.6-0.3,1.1,0.4,1.7,0.1c-0.4-0.4-0.9-0.9-1.3-1.3
	C137.9,65,136.9,65.9,137,67.2 M133.5,70.2c-0.5,0.7-1,1.5-1.4,2.3c0.5-0.2,0.9-0.8,1.4-0.5c1.2,0.7,2.4,1.5,3.6,2.2
	c-2.2,0.5-4.4,1-6.6,1.5c-0.3,0.1-0.6,0.2-0.9,0.5c1.8,1.2,3.7,2.3,5.5,3.5c0.5,0.3,0.2,0.9,0.2,1.4c0.6-0.8,1.2-1.7,1.6-2.6
	c-0.4,0-0.7,0.4-1,0.7c-0.3,0-0.6-0.2-0.9-0.4l-3.1-1.9l5.7-1.3c0.6,0,1.3-0.3,1.7-0.7c-1.3-0.8-2.6-1.6-3.9-2.4
	c-0.7-0.4-1.4-0.8-2-1.4C133.6,70.8,134,70.1,133.5,70.2 M207.7,73c-0.1,0.9,0.1,2.2-0.9,2.7s-2.2-1-1.4-1.9c0.2-0.3,0.7-0.6,0.4-1
	c-0.5,0.4-1.1,0.7-1.6,1.1c0.1,1.5,1.2,2.7,2.7,2.9c1.2-0.1,2.1-1.1,2.2-2.3c0.2-0.9-0.1-1.9,0.5-2.6s1.5,0,1.6,0.7s-0.3,1-0.6,1.4
	c0.6,0.3,1.1-0.5,1.6-0.8c-0.4-1.2-1.2-2.6-2.6-2.5C208.5,70.9,207.6,71.9,207.7,73 M214,76.3c0,0.3,0.3,0.9-0.1,1.1
	c-1.3,0.7-2.7,1.3-4,2c-0.5,0.3-1,0.5-1.5,0.7c-0.2-0.2-0.4-0.5-0.6-0.7c0,0.1,0,0.3,0,0.4c0.4,0.9,0.8,1.8,1.3,2.7
	c0.5,0.1-0.1-0.7,0-1c0.6-0.4,1.3-0.8,2-1.1c1.2-0.6,2.4-1.2,3.7-1.8c0.2,0.2,0.5,0.4,0.7,0.7c0-0.1,0.1-0.2,0.1-0.3
	c-0.3-0.7-0.7-1.4-1-2.1C214.4,76.6,214.2,76.4,214,76.3 M128.8,81.4c-1.9,0.9-2.9,3-2.5,5c0.6,2.1,2.8,3.3,5,2.7
	c0.1,0,0.2-0.1,0.3-0.1c1.7-0.9,2.6-2.8,2.3-4.6c-0.5-2.2-2.7-3.6-4.9-3.1C129,81.3,128.9,81.3,128.8,81.4 M215.3,82.4
	c0.2,0.4,0.8,0.2,1.1,0.6c0.3,0.6,0.5,1.2,0.6,1.8l-6,1.8l-0.4-0.7l-0.3,0.1c0.3,1.1,0.6,2.1,0.9,3.2l0.3-0.1c0-0.4-0.4-1.1,0.3-1.2
	c1.9-0.6,3.8-1.1,5.6-1.7c0.2,0.6,0.4,1.2,0.4,1.9c-0.2,0.3-0.6,0.5-0.6,0.9c0.5-0.2,1-0.4,1.5-0.7c-0.6-2-1.2-4-1.8-6
	C216.4,82.3,215.9,82.3,215.3,82.4 M124.8,92.8l0.5-0.5c1,0.5,1.8,1.2,2.7,1.8c-1,0.5-2,0.9-3,1.4l-0.5-0.5c-0.1,1-0.2,2-0.3,3
	c0.4-0.3,0.5-0.9,1-1.1c0.9-0.5,1.8-0.9,2.7-1.4c0.9-0.4,2.1-0.2,3.1-0.1c0.5,0,0.4,0.7,0.6,1c0.3-1.1,0.5-2.3,0.4-3.5
	c-0.4,0.3-0.3,1.2-1,1.1c-1-0.1-2.2,0-3-0.7s-1.6-1.1-2.3-1.8c-0.4-0.3-0.4-0.9-0.6-1.3C124.9,91,124.7,91.9,124.8,92.8 M219,90.1
	c-0.2,1.5-1.8,2.1-2.8,3c-0.9,0.8-2.1,0.8-3.2,0.8c-0.5,0.1-0.5-0.6-0.7-0.9c-0.3,0.6,0,1.3,0,1.9s0,1.2,0.4,1.6
	c0.1-0.4-0.1-1.2,0.5-1.2c0.8-0.2,1.7-0.2,2.6-0.2c1,0.4,2,0.9,3,1.4c0.6,0.2,0.8,0.9,1.2,1.3c0-0.9-0.1-1.8-0.2-2.7l-0.6,0.5
	c-1-0.3-2-0.7-2.9-1.2c0.9-0.7,1.8-1.3,2.7-1.9l0.5,0.4C219.4,92.1,219.3,91.1,219,90.1 M129.8,109.4c-0.7,0.4-0.9,1.3-0.4,2
	c0.4,0.7,1.3,0.9,2,0.4c0.5-0.3,0.7-0.8,0.7-1.4c-0.1-0.8-0.8-1.4-1.6-1.3C130.2,109.2,130,109.3,129.8,109.4 M213.7,109.4
	c-0.8,0.2-1.2,1.1-1,1.8c0.2,0.8,1.1,1.2,1.8,1c0.5-0.2,0.9-0.6,1-1.1c0.2-0.8-0.4-1.6-1.2-1.7C214.1,109.3,213.9,109.3,213.7,109.4
	 M200.9,126.9l0.8,0.7c1.1-1.3,2.2-2.7,3.3-4l4.3,3.6c-0.2,0.2-0.4,0.5-0.6,0.8l-2.2-1.9l-0.8,1l2.2,1.9l-0.4,0.5l-2.2-1.9
	c-0.3,0.4-0.7,0.8-1,1.2h0.6l1.9,1.5l-0.9,1.2l0.8,0.7l5-6l-0.8-0.7l-0.6,0.6c-1.7-1.4-3.4-2.8-5.1-4.2L200.9,126.9 M136.9,122.6
	c-1,0.9-1,2.4-0.1,3.4c0.5,0.6,1.3,0.9,2.1,0.9c0.4,0.4,0.7,0.8,1.1,1.2c-0.5,0.5-1.1,1-1.6,1.4l0.9,1l4.5-3.9
	c-0.4-0.4-0.7-0.8-1.1-1.3c-0.1,0.4-0.3,0.7-0.5,1c-0.4-0.4-0.8-0.8-1.2-1.3c-0.1-0.6-0.3-1.2-0.6-1.8c-0.7-1.1-2.2-1.5-3.4-0.8
	C137,122.6,136.9,122.6,136.9,122.6 M135.3,125.4c-0.3,0.9-1.2,1.4-1.9,2l4.2,4.8l0.8-0.7l-3.3-3.8l1.2-1.1
	C136,126.2,135.7,125.8,135.3,125.4 M191,133.8c0.3,0.2,0.6,0.4,0.7,0.7c0.6,1.1,1.1,2.3,1.6,3.4l1.2-0.6c-0.2-0.5-0.4-0.9-0.7-1.4
	l1.2-0.6c-0.2-0.3-0.3-0.6-0.4-0.9l-1.2,0.6c-0.3-0.7-0.7-1.4-1-2.1L191,133.8 M151.4,133.4c0.1,0.4,0.3,0.8,0,1.1
	c-0.8,1.4-2.2,2.4-3.7,2.9c0.1,0.3,0.2,0.5,0.3,0.8c0.8-0.2,1.5-0.5,2.3-0.9c0.3,0.8,0.6,1.7,0.8,2.5l1.1-0.6
	c-0.3-0.8-0.6-1.7-1-2.4c0.9-0.7,1.6-1.6,2.1-2.6L151.4,133.4 M188.8,135.2c-0.1-0.2-0.2-0.4-0.3-0.6l-1.5,0.7
	c0.2,0.2,0.5,0.3,0.7,0.5c-0.6,0.3-1.2,0.6-1.8,0.9c0.1,0.3,0.3,0.6,0.4,1l0.7-0.4c-0.3,0.8,0,1.8,0.7,2.3c1.2,0.7,2.7,0.4,3.5-0.8
	c0.2-0.3,0.3-0.6,0.3-0.9c0.1-0.9-0.5-1.8-1.4-2.1l0.8-0.4l-0.4-1L188.8,135.2 M154.6,134.6c0,0.8-0.2,1.5-0.7,2.2l-1.2-0.6
	c-0.2,0.3-0.3,0.6-0.4,1l1.3,0.6c-0.7,1.5-1.4,3-2.1,4.5l1.1,0.5l3.5-7.6C155.5,135,155.1,134.8,154.6,134.6 M156.5,135.4
	c-1.1,2.5-2.3,5-3.5,7.5l1.2,0.6c1.1-2.5,2.3-5,3.5-7.5L156.5,135.4 M188.7,141l0.5,1c1.6-0.8,3.3-1.6,5-2.4
	c0.3,0.5,0.5,1.1,0.8,1.6l1.2-0.6c-0.4-0.8-0.8-1.7-1.2-2.6L188.7,141 M172.4,138.6c0.2,0.3,0.3,0.7,0.3,1.1c0,1.5,0,3,0,4.5
	c-1,0-2.1,0-3.2,0v-4.4h2.1v-1c-1.2,0-2.5,0-3.8,0c0.2,0.3,0.3,0.7,0.3,1.1c0,1.8,0,3.6,0,5.3h4.5v1.6c0.4,0,0.8,0,1.2,0v-5h0.6v5
	h1.3c0-2.8,0-5.5,0-8.3h-1.3v2.2h-0.6v-2.2L172.4,138.6 M202.5,66.9c0.8-0.8,1.5-1.5,2.3-2.3c0.3,0.4,0.8,0.9,0.6,1.4
	c-0.2,0.8-0.7,1.4-1.5,1.6C203.3,67.9,202.9,67.3,202.5,66.9 M162.3,72.7c3.5-1.2,6.8-3,9.8-5.2c6.2,4.7,13.8,7.1,21.5,7.9
	c1.8,0.2,3.6,0.3,5.3,0.3c0,6.5,0,12.9,0,19.4c0,2.3-0.2,4.7-0.6,7c-17.4-3.2-35.2-3.2-52.6,0c-0.4-2.6-0.6-5.3-0.6-7.9V75.6
	C151,75.6,156.8,74.6,162.3,72.7 M170.2,75.6c-5.8,1-9.7,6.6-8.7,12.4c1,5.8,6.6,9.7,12.4,8.7c5.8-1,9.7-6.6,8.7-12.4
	c-0.5-2.9-2.2-5.5-4.7-7.1C175.6,75.7,172.9,75.2,170.2,75.6 M189.1,83.3c0.1,1.5,2,1.7,2.5,3c0,0.8-0.5,1.8-1.4,1.7
	c0.3-0.6,0.8-1.1,0.7-1.7c-0.4-0.8-1.3-1-1.8-1.7c-0.3-0.4-0.4-0.9-0.4-1.4c-0.5,0.6-1.2,1.2-1.2,2.1c0.4,1,1.9,1.4,2.1,2.6
	c-0.5,0-1,0-1.5,0c0.1,0.5,0.3,0.9,0.4,1.3c1.4,0,2.9,0,4.3,0c0.2-0.5,0.3-0.9,0.4-1.3h-1.2c0.7-0.8,1.7-1.6,1.6-2.7
	c-0.6-1.1-1.9-1.6-2.5-2.6c-0.2-0.6,0.1-1.2,0.2-1.8C190.4,81.6,189.4,82.2,189.1,83.3 M150.3,84.9c-0.1,1.8-0.1,3.7,0,5.5
	c0.9,0,1.8,0,2.7,0c0.1-1.7,0.1-3.5,0-5.2C152.3,84.6,151.1,85.1,150.3,84.9 M154.1,85c-0.5,0.1-0.4,0.7-0.4,1.1c0,1.5,0,2.9,0,4.4
	c0.9,0,1.9,0,2.8,0c0-1.8,0-3.6,0-5.4C155.7,84.9,154.8,84.9,154.1,85 M148.8,85.8c-0.1,1.9-0.1,3.9,0,5.8c1.1,0,2.2,0,3.3,0
	c0.5,0.7,1.4,0.8,2.1,0.4c0.1-0.1,0.3-0.2,0.4-0.4c1.1,0,2.1,0,3.2,0c0.1-1.9,0.1-3.8,0-5.7l-0.7-0.2c0,1.7,0,3.5,0,5.2
	c-1,0-2,0-3.1,0c-0.2,0.3-0.4,0.6-0.7,0.6c-0.4,0-0.5-0.4-0.7-0.6h-3c0-1.7,0-3.4,0-5.1L148.8,85.8 M189.3,89.9
	c0.2,1.5,0.4,3,0.7,4.4c0,0.6,0.7,0.3,1,0.3c0.2-1.6,0.5-3.2,0.8-4.7C190.9,89.8,190.1,89.8,189.3,89.9 M170.9,80.8
	c2.9-0.6,5.8,1.2,6.5,4.1c0.6,2.9-1.2,5.8-4.1,6.5c-2.9,0.6-5.8-1.2-6.5-4.1c-0.2-0.9-0.2-1.9,0.1-2.8
	C167.5,82.6,169,81.3,170.9,80.8 M128.6,82.9c1.1-0.3,2.4-0.2,3.4,0.4c0.7,0.3,1.2,1,1.4,1.8c0,1.1-0.7,2.1-1.7,2.5
	c-1.1,0.3-2.3,0.2-3.4-0.3c-0.7-0.3-1.2-0.9-1.4-1.6C126.7,84.4,127.4,83.3,128.6,82.9 M146.1,103.6c17.2-3.1,34.8-3.1,52,0
	c-1.3,6.4-4.2,12.4-8.5,17.4c-5.8-5.8-11.7-11.7-17.5-17.5c-5.8,5.8-11.7,11.7-17.5,17.5C150.3,116,147.4,110,146.1,103.6
	 M158.9,125.3c4.4-4.4,8.8-8.8,13.2-13.2c4.4,4.4,8.8,8.8,13.2,13.2c-4,3.4-8.4,6.2-13.2,8.3C167.3,131.5,162.9,128.7,158.9,125.3
	 M167.1,122.3c-0.6,0.3-1.1,0.7-1.6,1.2l0.9-0.2c0,1,0,1.9-0.1,2.9c-0.3,0.1-0.5,0.2-0.8,0.3c0.8,0.1,1.6,0.1,2.4,0l-0.7-0.3
	C167.2,124.8,167.2,123.5,167.1,122.3 M168.6,123.3c0,0.4,0.4,0.7,0.6,1c-0.4,0.3-0.9,0.8-0.8,1.3c0.3,1.4,2.8,1.2,2.9-0.2
	c0.1-0.6-0.4-0.9-0.8-1.2c0.4-0.3,0.8-0.8,0.5-1.3c-0.4-0.6-1.3-0.8-1.9-0.4C168.9,122.7,168.7,123,168.6,123.3 M172.3,123.3
	c0,0.4,0.3,0.7,0.6,1c-0.5,0.3-1,0.8-0.7,1.4c0.4,1.3,2.8,1.1,2.9-0.3c0-0.6-0.4-0.9-0.8-1.2c0.4-0.3,0.6-0.8,0.5-1.3
	C174.2,121.9,172.3,122.1,172.3,123.3 M176.1,122.4c-0.1,0.5-0.1,1.1-0.2,1.6c0.5,0.2,1,0.3,1.3,0.8s0.1,1.4-0.7,1.4
	c-0.5,0-0.6-0.6-0.9-0.9c0,0.4,0,0.8,0,1.2c0.7,0.2,1.4,0,2-0.4c0.6-0.5,0.6-1.4,0.1-2c-0.1-0.1-0.1-0.1-0.2-0.2
	c-0.4-0.3-1.2-0.3-1.2-0.9h1.2l0.4,0.4c0.1-0.4,0.1-0.7,0.1-1.1L176.1,122.4 M169.3,123.3c-0.1-0.4,0.5-0.9,0.8-0.5s0.1,0.8-0.1,1.2
	C169.8,123.8,169.4,123.6,169.3,123.3 M173,123.1c0-0.5,0.7-0.6,1-0.2c0.3,0.4-0.1,0.7-0.2,1.1C173.5,123.8,172.9,123.6,173,123.1
	 M138.3,123.4c0.6-0.2,1.3,0.1,1.5,0.8c0,0.1,0.1,0.2,0.1,0.3c0,0.7-0.6,1.4-1.3,1.4c-0.3,0-0.6-0.1-0.9-0.3
	c-0.5-0.5-0.5-1.4,0.1-1.9C137.8,123.5,138,123.4,138.3,123.4 M169.7,124.4c0.4,0.3,1.1,0.7,0.8,1.3c-0.1,0.3-0.5,0.5-0.9,0.3
	c-0.2-0.1-0.3-0.2-0.3-0.3C169,125.2,169.4,124.7,169.7,124.4 M173.6,126.1c-1-0.1-0.8-1.3-0.2-1.8
	C174.1,124.7,174.6,125.9,173.6,126.1 M140,126.6l0.5-0.5c0.3,0.3,0.6,0.6,0.8,1l-0.5,0.4L140,126.6 M188.8,136.6
	c0.6-0.2,1.3,0.1,1.5,0.7c0.1,0.2,0.1,0.4,0,0.6c-0.1,0.6-0.7,1-1.3,0.9c-0.1,0-0.3-0.1-0.4-0.1c-0.6-0.3-0.8-1.1-0.4-1.6
	C188.4,136.9,188.6,136.7,188.8,136.6z"/>
</svg>
